<?xml version="1.0" standalone="no"?>
<!DOCTYPE svg PUBLIC "-//W3C//DTD SVG 20010904//EN"
 "http://www.w3.org/TR/2001/REC-SVG-20010904/DTD/svg10.dtd">
<svg version="1.0" xmlns="http://www.w3.org/2000/svg"
 width="985.000000pt" height="985.000000pt" viewBox="0 0 985.000000 985.000000"
 preserveAspectRatio="xMidYMid meet">
<metadata>
Created by potrace 1.16, written by Peter Selinger 2001-2019
</metadata>
<g transform="translate(0.000000,985.000000) scale(0.100000,-0.100000)"
fill="#000000" stroke="none">
<path d="M4630 9820 c-60 -13 -129 -49 -152 -81 -44 -58 -19 -128 87 -249 117
-133 165 -229 165 -330 0 -126 -54 -138 -237 -52 -276 131 -604 141 -881 29
-301 -123 -559 -430 -503 -600 32 -95 114 -120 390 -118 307 2 476 -28 573
-102 83 -63 74 -70 -147 -116 -992 -205 -1816 -787 -2346 -1657 -283 -463
-479 -955 -644 -1614 -109 -431 -148 -561 -255 -840 -138 -361 -218 -640 -257
-905 -28 -193 -26 -597 6 -775 138 -786 624 -1397 1432 -1799 1013 -506 2699
-720 4159 -530 1469 191 2438 626 2962 1329 316 424 464 875 462 1410 -1 386
-77 738 -266 1235 -112 292 -164 461 -266 870 -307 1222 -786 2039 -1532 2616
-404 312 -816 501 -1452 664 -75 19 -79 25 -49 83 29 57 126 143 257 228 247
160 300 234 244 345 -58 112 -272 166 -517 130 -115 -17 -126 -8 -153 134 -65
332 -291 563 -655 671 -99 29 -335 42 -425 24z"/>
</g>
</svg>
